<svg width="16" height="17" fill="none" xmlns="http://www.w3.org/2000/svg"><g clip-path="url(#clip0)" fill="#FFF500"><path d="M8 15.173a6.674 6.674 0 01-6.667-6.666A6.674 6.674 0 018 1.84a6.674 6.674 0 016.667 6.667A6.674 6.674 0 018 15.173zM8 2.84a5.673 5.673 0 00-5.667 5.667A5.673 5.673 0 008 14.173a5.673 5.673 0 005.667-5.666A5.673 5.673 0 008 2.84z"/><path d="M8 3.84a.5.5 0 01-.5-.5V1.007a.5.5 0 011 0V3.34a.5.5 0 01-.5.5zm7.5 5.167h-2.333a.5.5 0 010-1H15.5a.5.5 0 010 1zm-7.5 7.5a.5.5 0 01-.5-.5v-2.334a.5.5 0 011 0v2.334a.5.5 0 01-.5.5zm-5.167-7.5H.5a.5.5 0 010-1h2.333a.5.5 0 010 1zM8 10.507c-1.103 0-2-.898-2-2 0-1.103.897-2 2-2s2 .897 2 2c0 1.102-.897 2-2 2zm0-3a1.001 1.001 0 000 2 1.001 1.001 0 000-2z"/></g><defs><clipPath id="clip0"><path fill="#fff" transform="translate(0 .507)" d="M0 0h16v16H0z"/></clipPath></defs></svg>