<svg width="20" height="20" fill="none" xmlns="http://www.w3.org/2000/svg"><g clip-path="url(#clip0)"><path d="M18.845 11.592V5.688a1.378 1.378 0 00-.69-1.194l-.927-.534-.867-.5-.698-.404-3.71-2.141-.782-.451-.484-.28a1.378 1.378 0 00-1.378 0l-.48.278-.782.452-3.71 2.143-1.17.675-.867.501-.457.264c-.033.019-.064.04-.095.06-.37.257-.594.68-.594 1.134v2.717l.001 3.184v2.72a1.378 1.378 0 00.69 1.194l.913.527.867.5.712.41 3.71 2.142.782.451.483.28c.427.246.953.245 1.379 0l.48-.278.782-.451 3.71-2.144 1.068-.616.866-.5.56-.324a1.378 1.378 0 00.689-1.194v-2.717z" fill="#F5F5F5"/><path d="M11.953 19.086l3.71-2.143-3.71-3.302v5.445zm3.71-16.031L11.953.914v5.444l3.71-3.303zM4.337 16.944l3.71 2.141v-5.444l-3.71 3.303zm13.915-1.502c.37-.256.594-.678.594-1.133v-1.656h-3.728l3.134 2.79zm-17.097-2.79v1.66c0 .454.223.875.591 1.13l3.135-2.79H1.155zm.593-8.094c-.37.256-.594.678-.594 1.132v1.657h3.728l-3.134-2.79zm17.096 2.789v-1.66c0-.453-.223-.874-.591-1.13l-3.135 2.79h3.726zM8.047.913l-3.71 2.144 3.71 3.302V.913z" fill="#41479B"/><path d="M11.171.464l-.483-.28a1.378 1.378 0 00-1.379 0l-.48.278v7.946H1.154v3.184h7.673v7.944l.484.28c.427.246.952.245 1.379 0l.48-.278v-7.946h7.674V8.408h-7.673V.464z" fill="#FF4B55"/><path d="M6.591 12.653l-3.833 3.38.867.5 4.4-3.88H6.592zm5.973 0l4.166 3.674.867-.5L14 12.652h-1.435zM7.266 7.347L3.167 3.732l-.867.5 3.532 3.115h1.434zm4.687 0h1.434L17.23 3.96l-.867-.5-4.41 3.887z" fill="#FF4B55"/></g><defs><clipPath id="clip0"><path fill="#fff" d="M0 0h20v20H0z"/></clipPath></defs></svg>