<svg width="20" height="20" fill="none" xmlns="http://www.w3.org/2000/svg"><g clip-path="url(#clip0)"><path d="M19 11.592l-.001-3.184v-2.72a1.371 1.371 0 00-.702-1.194l-.942-.534-.883-.5-.71-.404L11.986.915l-.794-.451-.493-.28a1.423 1.423 0 00-1.402 0l-.49.278-.794.452-3.775 2.143-1.19.675-.882.501-.465.264c-.033.019-.065.04-.097.06A1.372 1.372 0 001 5.692v2.716l.001 3.184v2.72a1.371 1.371 0 00.702 1.194l.929.527.882.5.724.41 3.775 2.142.795.451.492.28c.434.246.969.245 1.403 0l.489-.278.795-.451 3.775-2.144 1.086-.616.882-.5.569-.324A1.371 1.371 0 0019 14.31v-2.718z" fill="#F5F5F5"/><path d="M19 14H1l.002.312a1.371 1.371 0 00.7 1.194l.93.527.882.5.724.41 3.775 2.142.795.451.492.28c.434.246.969.245 1.403 0l.489-.278.795-.452 3.775-2.143 1.086-.616.882-.5.569-.324A1.371 1.371 0 0019 14.31V14z" fill="red"/><path fill="#001B50" d="M1 6h18v8H1z"/></g><defs><clipPath id="clip0"><path fill="#fff" d="M0 0h20v20H0z"/></clipPath></defs></svg>