<svg width="20" height="20" fill="none" xmlns="http://www.w3.org/2000/svg"><g clip-path="url(#clip0)"><path d="M1 8.408l.001 3.184v2.72a1.371 1.371 0 00.702 1.194l.943.535.882.5.71.403 3.776 2.141.794.451.493.28c.434.246.968.245 1.402 0l.49-.278.794-.452 3.775-2.143 1.19-.675.882-.501.465-.264A1.372 1.372 0 0019 14.31v-2.718l-.001-3.184v-2.72a1.371 1.371 0 00-.702-1.194l-.929-.527-.882-.5-.724-.41L11.987.914l-.795-.451-.492-.28a1.424 1.424 0 00-1.403 0l-.489.278-.795.452-3.775 2.143-1.086.616-.882.5-.569.324c-.033.019-.065.04-.097.06A1.372 1.372 0 001 5.692v2.716z" fill="#FFF500"/><path d="M1 10h17.998V5.688a1.371 1.371 0 00-.7-1.194l-.93-.527-.882-.5-.724-.41L11.987.914l-.795-.451-.492-.28a1.424 1.424 0 00-1.403 0l-.489.278-.795.452-3.775 2.143-1.086.616-.882.5-.569.324c-.033.019-.065.04-.097.06A1.371 1.371 0 001 5.692V10z" fill="#0057FF"/></g><defs><clipPath id="clip0"><path fill="#fff" transform="rotate(-180 10 10)" d="M0 0h20v20H0z"/></clipPath></defs></svg>