<svg width="16" height="16" fill="none" xmlns="http://www.w3.org/2000/svg"><g clip-path="url(#clip0)" fill="#FFF500"><path d="M13.527 2.274a8.1 8.1 0 00-11.254 0 8.1 8.1 0 0011.453 11.452 8.1 8.1 0 00-.2-11.452zm-.182 11.072l-.003-.003A7.56 7.56 0 1115.56 8a7.56 7.56 0 01-2.214 5.346z"/><path d="M12.55 10.306l-1.518-1.512a.883.883 0 00-1.249-.002l-.001.002-.87.87a.192.192 0 01-.245.02 9.828 9.828 0 01-1.331-1.117 9.883 9.883 0 01-1.01-1.18.189.189 0 01.019-.246l.891-.89a.883.883 0 000-1.248L5.719 3.486a.904.904 0 00-1.25 0l-.48.48a2.7 2.7 0 00-.67 2.754 8.1 8.1 0 00.988 2.004c.378.567.812 1.095 1.296 1.576.525.53 1.107 1 1.736 1.401.69.451 1.449.788 2.246 1 .205.05.415.075.626.075a2.732 2.732 0 001.925-.81l.413-.413a.883.883 0 000-1.247zm-.383.879h-.001l.002-.007-.413.413a2.16 2.16 0 01-2.038.583 7.175 7.175 0 01-2.084-.934 9.628 9.628 0 01-1.644-1.326 9.704 9.704 0 01-1.229-1.49 7.559 7.559 0 01-.923-1.868 2.16 2.16 0 01.54-2.206l.48-.48a.343.343 0 01.485-.002l.001.001 1.518 1.518a.342.342 0 010 .484v.002l-.891.89a.726.726 0 00-.076.945c.322.443.679.859 1.067 1.245.432.434.901.829 1.403 1.18.29.202.684.168.935-.081l.86-.875a.343.343 0 01.486 0l1.52 1.523c.135.134.136.35.002.485z"/></g><defs><clipPath id="clip0"><path fill="#fff" d="M0 0h16v16H0z"/></clipPath></defs></svg>