<svg width="20" height="20" fill="none" xmlns="http://www.w3.org/2000/svg"><path d="M19.645 10.104c0-5.194-4.27-9.405-9.539-9.405-.555 0-1.1.047-1.631.137A5.567 5.567 0 005.533 0C2.475 0 0 2.441 0 5.455c0 1.006.278 1.947.76 2.759a9.33 9.33 0 00-.194 1.89c0 5.195 4.272 9.406 9.539 9.406.598 0 1.18-.055 1.747-.158.78.413 1.67.648 2.617.648C17.524 20 20 17.558 20 14.546c0-.87-.207-1.692-.575-2.422.145-.653.22-1.327.22-2.02z" fill="#03A9F4"/><path d="M14.999 14.599c-.442.616-1.093 1.104-1.939 1.448-.836.343-1.838.52-2.98.52-1.37 0-2.519-.238-3.416-.708a4.433 4.433 0 01-1.57-1.375c-.406-.575-.61-1.146-.61-1.7 0-.343.134-.643.397-.886.262-.244.597-.365.997-.365.327 0 .61.096.84.287.218.185.407.457.558.806.169.383.353.705.547.957.188.246.457.45.8.612.347.16.813.244 1.386.244.788 0 1.436-.168 1.921-.494.476-.319.706-.704.706-1.174 0-.37-.121-.662-.367-.891-.26-.24-.603-.426-1.018-.555a20.238 20.238 0 00-1.75-.427c-.991-.21-1.832-.455-2.5-.738-.683-.288-1.236-.685-1.638-1.181-.41-.508-.618-1.142-.618-1.887 0-.71.218-1.35.648-1.902.426-.549 1.048-.978 1.852-1.269.791-.289 1.733-.434 2.799-.434.851 0 1.6.098 2.226.29.629.193 1.159.453 1.575.774.42.325.732.669.928 1.029.197.362.298.724.298 1.072 0 .337-.131.643-.391.908a1.324 1.324 0 01-.98.402c-.352 0-.63-.086-.821-.252-.179-.156-.365-.4-.57-.748-.238-.445-.526-.796-.856-1.045-.322-.24-.857-.36-1.594-.36-.683 0-1.24.134-1.653.402-.397.256-.591.551-.591.901a.82.82 0 00.191.546c.135.165.327.306.569.426.25.124.509.224.768.294.265.073.708.181 1.32.32.772.163 1.48.346 2.108.545a6.759 6.759 0 011.634.734c.456.294.818.669 1.075 1.119.258.454.388 1.01.388 1.657a3.54 3.54 0 01-.67 2.098z" fill="#FAFAFA"/></svg>