<svg width="20" height="20" fill="none" xmlns="http://www.w3.org/2000/svg"><path d="M20 10c0 5.523-4.477 10-10 10S0 15.523 0 10 4.477 0 10 0s10 4.477 10 10z" fill="#9330B2"/><path d="M11.336 3.425H8.664a4.862 4.862 0 00-4.857 4.857v1.856a4.88 4.88 0 001.415 3.418v2.453a.676.676 0 001.013.585l2.774-1.599h2.327a4.862 4.862 0 004.857-4.857V8.282a4.862 4.862 0 00-4.857-4.857zm3.822 6.79a3.716 3.716 0 01-3.704 3.704H9.277l-3.413 2.09V12.76a3.69 3.69 0 01-1.023-2.547V8.205a3.716 3.716 0 013.705-3.704h2.908a3.716 3.716 0 013.704 3.704v2.01z" fill="#fff"/><path d="M11.336 3.425H10V4.5h1.454a3.716 3.716 0 013.704 3.704v2.01a3.716 3.716 0 01-3.704 3.704H10v1.076h1.336a4.863 4.863 0 004.857-4.857V8.282a4.862 4.862 0 00-4.857-4.857z" fill="#FFF5CB"/><path d="M9.293 6.419a.178.178 0 01.046-.284c.94-.469 2.185-.208 3.027.633.84.841 1.101 2.085.634 3.025a.178.178 0 01-.318-.158c.4-.806.167-1.881-.567-2.616-.736-.735-1.812-.968-2.617-.567a.178.178 0 01-.205-.033z" fill="#fff"/><path d="M13 9.793a.178.178 0 01-.318-.159c.4-.805.167-1.88-.567-2.615-.59-.59-1.401-.857-2.115-.73v-.36c.81-.12 1.71.184 2.366.839.84.841 1.101 2.085.634 3.025z" fill="#FFF5CB"/><path d="M9.697 7.2a.177.177 0 01.05-.286c.646-.303 1.462-.124 2.03.443.567.568.745 1.383.443 2.029a.178.178 0 01-.321-.15c.239-.511.089-1.165-.374-1.628-.462-.462-1.116-.612-1.628-.373a.178.178 0 01-.2-.035z" fill="#fff"/><path d="M12.22 9.386a.177.177 0 01-.322-.15c.24-.512.09-1.165-.373-1.627-.432-.432-1.03-.592-1.525-.416v-.371c.596-.159 1.28.04 1.776.536.568.567.746 1.382.444 2.028z" fill="#FFF5CB"/><path d="M10.095 7.98a.177.177 0 01.063-.291c.34-.13.745-.03 1.03.256.286.285.386.69.257 1.03a.177.177 0 11-.332-.126c.079-.207.008-.47-.176-.653-.183-.184-.446-.254-.653-.175a.178.178 0 01-.189-.04z" fill="#fff"/><path d="M10.095 7.98a.177.177 0 01.063-.291c.34-.13.745-.03 1.03.256.286.285.386.69.257 1.03a.177.177 0 11-.332-.126c.079-.207.008-.47-.176-.653-.183-.184-.446-.254-.653-.175a.178.178 0 01-.189-.04z" fill="#FFF5CB"/><path d="M8.814 7.669L7.582 6.437c-.156-.157-.378-.193-.491-.08l-.12.12c-.58.58-.687 1.426-.216 2a24.183 24.183 0 001.862 2.039 24.188 24.188 0 002.038 1.862c.575.471 1.421.364 2.002-.216l.119-.12c.113-.113.077-.335-.08-.49l-1.232-1.233c-.292-.293-.485-.252-.599-.138 0 0-.155.158-.184.19-.11.11-.391.135-.644-.023a4.21 4.21 0 01-.685-.567 4.215 4.215 0 01-.567-.684c-.158-.254-.134-.535-.023-.645.032-.029.19-.184.19-.184.114-.114.154-.307-.138-.6z" fill="#fff"/><path d="M12.776 12.042l-.12.12c-.58.58-1.426.687-2 .216-.22-.18-.44-.366-.656-.555v-1.499l.037.024c.253.158.534.133.644.023.029-.033.184-.19.184-.19.114-.114.307-.154.6.138l1.231 1.232c.156.156.194.378.08.491z" fill="#FFF5CB"/></svg>